# xmcd
# Track frame offsets:
# 150
# 12319
# 24282
# 37104
# 51987
# 65242
# 81827
# 96261
# 110764
# 122162
# 136930
# 155644
#
# Disc length: 2232 seconds
# Revision: 0
# Processed by: cddbd v1.4PL0 Copyright (c) Steve Scherf et al.
# Submitted via: VisiTrax 2.9.5.180 - For more info visit www.synapsa.com
#
DISCID=a908b60c
DTITLE=Jim Murphy - Living the dream
DYEAR=1900
DGENRE=Bluegrass
TTITLE0=Retired
TTITLE1=Sally daisy
TTITLE2=The lottery
TTITLE3=The knock on the door
TTITLE4=ou've been foolong me baby
TTITLE5=A half an hour to midnight
TTITLE6=Our father
TTITLE7=The mother church of country music
TTITLE8=The black diamond
TTITLE9=Peter, do you love me
TTITLE10=Wages of sin
TTITLE11=Welcome home Big 'J'
EXTD=
EXTT0=
EXTT1=
EXTT2=
EXTT3=
EXTT4=
EXTT5=
EXTT6=
EXTT7=
EXTT8=
EXTT9=
EXTT10=
EXTT11=
PLAYORDER=
